<?xml version="1.0" standalone="no"?>
<!DOCTYPE svg PUBLIC "-//W3C//DTD SVG 20010904//EN"
 "http://www.w3.org/TR/2001/REC-SVG-20010904/DTD/svg10.dtd">
<svg version="1.0" xmlns="http://www.w3.org/2000/svg"
 width="439.000000pt" height="568.000000pt" viewBox="0 0 439.000000 568.000000"
 preserveAspectRatio="xMidYMid meet">
<metadata>
Created by potrace 1.15, written by Peter Selinger 2001-2017
</metadata>
<g transform="translate(0.000000,568.000000) scale(0.100000,-0.100000)"
fill="#000000" stroke="none">
<path d="M880 5672 c-53 -6 -71 -13 -105 -44 -72 -63 -70 -48 -70 -488 0 -380
4 -458 25 -445 5 3 7 0 4 -8 -7 -19 57 -71 105 -86 21 -6 87 -11 146 -11 l108
0 -109 -66 c-60 -36 -134 -84 -164 -107 -82 -60 -259 -219 -305 -272 -22 -26
-55 -63 -72 -83 -18 -20 -31 -43 -28 -50 3 -7 0 -10 -5 -7 -12 8 -123 -161
-115 -175 4 -6 1 -9 -6 -8 -16 4 -130 -240 -125 -265 2 -9 1 -15 -4 -12 -10 6
-54 -141 -54 -187 -1 -20 -5 -34 -10 -31 -5 3 -7 -8 -4 -25 2 -17 1 -29 -4
-26 -4 3 -8 -1 -8 -8 0 -7 -5 -74 -10 -149 -29 -403 101 -811 365 -1144 146
-185 412 -405 620 -514 l60 -31 -50 -1 c-43 -1 -183 -6 -252 -8 -23 -1 -23 -2
-23 -151 l0 -150 -105 -2 c-58 -1 -117 -2 -132 -4 -16 -1 -104 -5 -198 -9 -93
-4 -181 -9 -195 -10 -14 -1 -44 -3 -68 -3 -53 -2 -75 23 223 -247 127 -114
241 -218 255 -231 l25 -24 -275 -275 c-268 -268 -274 -275 -240 -275 19 0 170
7 335 15 165 8 412 17 550 21 137 4 261 8 275 9 14 1 57 3 95 4 58 2 66 4 48
13 -22 11 -23 16 -23 143 l0 132 61 7 c80 8 1507 8 1586 0 l60 -7 -1 -129 c-1
-128 -1 -130 -26 -143 -23 -13 -21 -14 45 -17 39 -1 81 -3 95 -3 14 -1 140 -5
280 -9 140 -4 392 -14 560 -22 168 -7 308 -14 313 -14 32 0 -27 69 -250 293
l-258 258 30 26 c17 14 70 62 119 107 261 236 361 330 361 340 0 24 -58 34
-220 40 -93 3 -241 9 -327 12 l-158 7 0 149 c0 147 0 148 -22 149 -13 0 -66 2
-118 4 -52 1 -115 4 -140 4 l-45 1 60 33 c346 189 648 496 806 817 127 259
174 458 172 740 -1 301 -64 540 -213 802 -88 155 -279 396 -302 382 -6 -4 -8
-2 -5 3 17 27 -291 266 -457 355 l-51 27 130 1 c104 0 138 4 170 19 49 23 88
65 104 111 15 44 15 768 0 823 -13 50 -61 103 -107 118 -28 9 -355 12 -1372
13 -734 1 -1346 0 -1360 -2z m2676 -28 c-5 -14 -4 -15 8 -5 11 10 21 9 43 -3
39 -20 85 -77 79 -99 -2 -10 0 -14 7 -10 6 4 8 -2 5 -15 -4 -12 -3 -22 1 -22
4 0 8 -7 8 -15 0 -8 -4 -15 -9 -15 -5 0 -4 -9 2 -20 8 -15 8 -20 -2 -20 -8 0
-9 -3 -3 -8 14 -10 17 -32 5 -32 -7 0 -7 -6 0 -20 8 -15 8 -20 -2 -20 -8 0 -9
-3 -3 -8 14 -10 17 -32 5 -32 -7 0 -7 -6 0 -20 8 -15 8 -20 -2 -20 -8 0 -9 -3
-3 -8 14 -10 17 -32 5 -32 -7 0 -7 -6 0 -20 8 -15 8 -20 -2 -20 -8 0 -9 -3 -3
-8 14 -10 17 -32 5 -32 -7 0 -7 -6 0 -20 8 -15 8 -20 -2 -20 -8 0 -9 -3 -3 -8
14 -10 17 -32 5 -32 -7 0 -7 -6 0 -20 8 -15 8 -20 -2 -20 -8 0 -9 -3 -3 -8 14
-10 17 -32 5 -32 -7 0 -7 -6 0 -20 8 -15 8 -20 -2 -20 -8 0 -9 -3 -3 -8 12 -9
18 -32 8 -32 -5 0 -7 -34 -5 -77 2 -61 -1 -80 -15 -96 -10 -11 -12 -17 -5 -13
19 11 14 -6 -11 -38 -13 -16 -33 -30 -44 -31 -12 0 -28 -7 -37 -14 -19 -16
-156 -23 -156 -9 0 6 -7 4 -17 -3 -13 -11 -17 -11 -21 -1 -3 10 -7 10 -20 0
-12 -10 -16 -10 -19 -1 -4 10 -10 10 -25 2 -18 -10 -20 -9 -14 7 7 17 6 17
-13 0 -12 -11 -21 -13 -25 -7 -4 6 -13 8 -21 4 -8 -3 -15 0 -15 6 0 6 -7 11
-16 11 -8 0 -13 4 -10 9 4 5 -4 7 -16 3 -14 -3 -19 -1 -14 6 5 8 2 10 -8 6 -9
-3 -16 -1 -16 6 0 6 -3 9 -8 6 -12 -7 -83 29 -75 39 5 4 3 5 -4 1 -16 -9 -64
4 -57 15 3 5 -1 6 -8 4 -8 -3 -40 4 -73 15 -33 12 -76 23 -95 26 -19 2 -36 8
-38 13 -2 5 -12 6 -24 3 -13 -3 -19 -1 -15 5 5 7 -1 9 -15 5 -16 -4 -19 -2
-13 9 6 10 5 11 -4 3 -12 -11 -74 -7 -67 5 3 4 -10 6 -27 5 -41 -3 -78 6 -71
17 3 5 -2 6 -10 3 -9 -3 -16 -10 -16 -16 0 -5 -5 -6 -10 -3 -6 4 -8 9 -6 13 2
4 -17 6 -42 6 -26 -1 -51 1 -57 4 -5 3 -27 5 -48 3 -22 -1 -37 1 -34 6 6 10
-125 9 -142 -1 -6 -4 -11 -2 -11 5 0 9 -3 9 -14 0 -8 -7 -17 -8 -19 -4 -7 11
-48 10 -66 -1 -8 -5 -16 -3 -21 4 -6 9 -9 9 -15 0 -4 -6 -24 -10 -46 -9 -21 2
-41 0 -45 -4 -13 -12 -36 -8 -28 6 6 8 3 8 -9 -2 -9 -7 -23 -11 -32 -8 -8 4
-17 1 -21 -4 -3 -6 -15 -9 -25 -6 -10 3 -22 1 -25 -4 -3 -5 -12 -9 -20 -9 -9
0 -12 5 -8 12 4 6 -3 4 -17 -5 -27 -20 -43 -22 -33 -5 4 6 -3 4 -17 -5 -27
-20 -43 -22 -33 -5 4 6 -3 4 -17 -5 -27 -20 -43 -22 -33 -5 4 6 -3 4 -17 -5
-27 -20 -43 -22 -33 -5 4 6 -10 -2 -31 -18 -22 -16 -36 -23 -31 -16 4 6 3 12
-3 12 -5 0 -13 -4 -16 -10 -9 -15 -38 -13 -29 3 4 6 -1 5 -12 -4 -10 -9 -30
-22 -44 -29 -24 -13 -24 -12 -10 6 12 14 9 14 -14 -4 -31 -24 -52 -29 -40 -10
4 7 3 8 -5 4 -6 -4 -9 -12 -6 -17 4 -5 -3 -9 -14 -9 -11 0 -23 -4 -26 -10 -9
-15 -27 -12 -19 3 4 6 -5 1 -19 -12 -17 -15 -32 -21 -44 -17 -9 4 -14 4 -11 0
9 -8 -51 -39 -92 -47 -21 -5 -29 -3 -24 4 4 8 0 7 -15 0 -14 -8 -21 -8 -21 -1
0 8 -6 8 -20 0 -15 -8 -20 -8 -20 1 0 8 -4 8 -13 1 -15 -12 -171 -5 -175 8 -2
6 -8 8 -13 4 -14 -8 -82 63 -73 77 5 8 3 9 -6 4 -10 -6 -12 -3 -8 13 4 12 3
20 -2 17 -12 -8 -9 98 4 114 8 11 8 13 -1 8 -15 -10 -15 52 1 72 8 11 8 13 -1
8 -15 -10 -15 52 1 72 8 11 8 13 -1 8 -15 -10 -15 52 1 72 8 11 8 13 -1 8 -15
-10 -15 52 1 72 8 11 8 13 -1 8 -15 -10 -15 52 1 72 8 11 8 13 -1 8 -15 -10
-15 52 1 72 8 11 8 13 -1 8 -15 -10 -15 52 1 72 8 11 8 13 -1 8 -15 -10 -15
52 1 72 9 12 8 13 -3 6 -11 -6 -13 -4 -6 11 4 10 10 29 12 41 6 24 53 73 74
76 8 2 19 5 24 9 6 3 614 6 1353 6 739 0 1346 3 1349 6 11 11 15 6 9 -10z
m-1176 -823 c44 -1 173 -23 199 -34 14 -5 33 -9 41 -8 9 1 42 -8 75 -19 33
-12 68 -23 78 -24 10 -1 22 -7 25 -12 4 -5 13 -9 20 -10 29 -2 33 -5 26 -16
-4 -7 -3 -8 5 -4 13 9 111 -27 153 -56 14 -10 29 -18 32 -18 17 0 95 -57 89
-65 -5 -4 -3 -5 4 -2 6 4 17 1 25 -6 7 -7 20 -16 28 -19 25 -9 140 -99 140
-109 0 -5 6 -9 13 -9 21 -1 78 -59 71 -73 -5 -6 1 -5 11 3 10 8 16 10 12 4 -4
-7 11 -26 33 -45 22 -19 54 -53 71 -77 17 -24 42 -54 56 -68 14 -14 21 -29 17
-37 -4 -6 -4 -9 1 -5 10 10 48 -39 40 -52 -3 -5 0 -7 8 -4 16 6 41 -42 31 -58
-4 -7 -2 -8 4 -4 6 4 18 -6 27 -24 8 -16 13 -30 11 -30 -3 0 6 -12 19 -26 14
-15 22 -30 19 -35 -3 -5 -2 -9 3 -9 4 0 14 -15 22 -32 8 -18 19 -39 25 -47 5
-7 11 -18 12 -25 1 -6 16 -46 34 -89 17 -44 29 -85 26 -93 -3 -8 -2 -13 3 -10
11 7 44 -121 35 -136 -4 -7 -2 -8 4 -4 7 4 12 0 13 -11 0 -10 3 -27 5 -38 8
-35 17 -109 18 -142 1 -18 4 -33 7 -33 3 0 6 -7 6 -15 0 -8 -4 -15 -9 -15 -5
0 -2 -8 8 -17 17 -17 17 -18 -1 -22 -13 -2 -14 -5 -6 -11 19 -11 18 -259 -1
-271 -10 -7 -10 -9 0 -9 6 0 12 -7 12 -15 0 -8 -6 -15 -12 -16 -10 0 -10 -2
-1 -6 9 -3 10 -10 3 -23 -7 -13 -7 -21 0 -25 7 -4 7 -11 2 -18 -5 -7 -15 -42
-22 -79 -7 -38 -17 -68 -22 -68 -5 0 -6 -4 -3 -10 3 -5 1 -29 -6 -52 -12 -44
-17 -67 -18 -81 -1 -5 -4 -6 -8 -4 -5 3 -8 -8 -9 -25 -1 -16 -11 -50 -22 -76
-11 -26 -35 -80 -53 -119 -17 -40 -37 -73 -42 -73 -6 0 -7 -3 -4 -7 4 -3 2
-12 -4 -20 -6 -7 -8 -13 -5 -13 4 0 1 -6 -6 -14 -7 -8 -17 -11 -22 -8 -5 3 -6
0 -2 -6 12 -20 -103 -190 -119 -174 -3 3 -3 -1 0 -9 3 -9 -1 -22 -9 -29 -9 -7
-13 -16 -10 -21 3 -5 -3 -6 -12 -2 -11 4 -15 3 -10 -5 3 -6 -2 -15 -11 -21
-10 -6 -14 -11 -10 -11 15 0 -166 -174 -245 -236 -94 -74 -114 -88 -122 -83
-3 2 -11 -5 -19 -15 -9 -12 -19 -16 -27 -11 -8 5 -11 4 -6 -3 17 -28 -38 -33
-362 -32 -295 2 -377 4 -392 10 -3 1 -9 1 -15 0 -37 -8 -45 -8 -45 -1 0 14 46
51 54 44 4 -5 6 -2 4 6 -4 17 70 58 100 56 12 -1 22 2 22 6 0 8 102 5 175 -4
65 -9 146 -33 138 -41 -4 -4 0 -4 8 -1 9 3 36 1 60 -5 79 -20 208 -18 269 3
30 11 62 26 71 33 8 8 20 14 26 14 16 0 143 129 143 146 0 8 6 17 13 20 8 3
14 10 14 17 0 7 8 30 18 52 21 47 21 45 34 114 15 74 14 158 -1 164 -29 11
-55 -11 -62 -51 -3 -23 -13 -48 -22 -56 -8 -9 -13 -16 -9 -16 14 0 -33 -64
-67 -91 -83 -67 -169 -73 -390 -29 -37 7 -65 16 -64 19 2 3 -18 7 -46 8 -27 1
-57 8 -66 15 -12 10 -14 10 -8 0 6 -9 -1 -11 -28 -8 -19 2 -40 7 -45 10 -5 4
-12 2 -15 -3 -3 -4 -24 -11 -47 -15 -53 -8 -112 -39 -170 -87 -25 -21 -50 -35
-54 -31 -5 4 -5 2 -2 -4 4 -6 -3 -20 -14 -30 -12 -11 -30 -35 -40 -54 l-19
-35 3 220 2 219 135 2 c74 1 150 7 169 13 18 5 36 10 40 9 3 -1 15 2 26 7 11
4 45 18 76 30 76 29 137 71 179 121 19 23 38 39 43 37 4 -3 7 -1 6 4 -4 16 24
62 34 56 6 -3 7 -2 4 4 -4 6 3 30 15 54 25 51 27 66 27 169 -1 91 -3 120 -8
114 -2 -2 -16 22 -31 54 -15 31 -41 70 -58 86 -17 16 -29 33 -26 38 3 5 2 7
-3 6 -4 -1 -36 16 -70 40 -34 23 -67 42 -72 42 -6 0 -11 -20 -11 -46 l0 -45
-37 3 c-36 3 -37 4 -59 73 -13 39 -24 71 -24 73 0 1 -9 2 -20 2 -11 0 -20 5
-20 11 0 5 -4 8 -8 5 -4 -2 -39 4 -77 15 -83 24 -96 27 -113 28 -7 1 -10 5 -7
11 3 5 0 8 -7 5 -18 -7 -160 30 -151 39 4 4 0 4 -8 1 -16 -6 -163 28 -155 36
2 2 -11 4 -30 5 -31 0 -35 -3 -44 -35 -15 -52 -32 -203 -28 -258 l3 -46 65
-19 c36 -11 74 -21 85 -23 31 -5 179 -49 185 -55 3 -3 16 -6 30 -8 30 -3 163
-43 170 -51 3 -3 16 -7 30 -9 14 -1 43 -11 64 -22 22 -11 42 -18 44 -16 2 2
14 30 27 63 21 52 27 58 56 61 17 2 35 0 40 -5 11 -11 -15 -105 -42 -151 -10
-18 -15 -30 -9 -27 16 10 68 -57 85 -112 17 -54 13 -139 -6 -128 -5 4 -7 0 -4
-7 7 -19 -37 -91 -63 -104 -12 -6 -20 -13 -17 -16 8 -7 -111 -69 -138 -72 -13
-1 -29 -6 -36 -10 -19 -12 -188 -16 -241 -6 -25 5 -61 12 -80 15 -129 25 -412
167 -455 228 -8 12 -15 17 -15 12 0 -5 -18 8 -40 30 -21 21 -36 43 -33 48 3 6
1 7 -5 4 -18 -12 -128 155 -116 175 4 6 3 8 -3 5 -8 -5 -35 55 -38 88 -2 15
-26 99 -31 107 -3 4 -11 5 -19 1 -22 -8 -22 -748 -1 -756 14 -5 36 10 36 25 0
5 12 27 26 49 43 69 148 104 254 84 19 -3 40 -11 47 -17 10 -8 13 -7 13 3 0
12 2 12 9 0 5 -7 14 -11 20 -7 7 5 9 1 5 -9 -4 -10 -2 -14 7 -10 8 3 64 -14
124 -38 l110 -44 0 -236 c0 -131 -1 -237 -2 -237 -1 0 -9 12 -17 28 -8 15 -25
38 -38 52 -12 13 -22 29 -20 35 2 5 0 7 -4 2 -4 -4 -21 6 -38 22 -39 37 -137
88 -184 97 -21 4 -42 11 -49 16 -6 5 -14 5 -17 0 -5 -8 -71 -15 -153 -16 -22
-1 -39 -4 -37 -7 2 -5 -100 -28 -151 -35 -5 0 -18 -4 -27 -8 -10 -5 -57 -6
-106 -5 -78 4 -95 8 -137 34 -42 26 -106 98 -102 115 0 3 -7 22 -16 44 -9 21
-17 46 -17 56 0 17 -33 31 -56 23 -11 -4 -8 -88 6 -172 6 -29 7 -58 3 -64 -3
-5 -2 -7 4 -4 5 3 20 -18 32 -48 13 -30 26 -53 30 -50 7 4 9 -2 13 -44 1 -11
6 -17 11 -14 5 3 15 -4 23 -16 9 -12 20 -18 26 -15 6 4 8 2 5 -3 -4 -6 0 -16
8 -23 8 -7 12 -17 8 -23 -3 -5 -1 -7 5 -3 6 3 17 0 24 -8 22 -22 135 -76 158
-76 12 0 19 -3 17 -7 -3 -5 32 -8 78 -8 46 0 82 3 80 6 -2 3 31 11 73 19 89
16 85 15 137 28 107 27 242 19 316 -19 39 -19 99 -70 99 -83 0 -6 -48 -1 -56
6 -3 4 -20 2 -37 -3 -18 -5 -183 -9 -367 -9 -261 1 -339 4 -352 14 -10 7 -14
17 -10 22 4 4 -2 2 -12 -6 -11 -8 -17 -10 -14 -5 6 11 -10 28 -31 33 -7 1 -22
11 -34 22 -11 11 -24 20 -29 20 -4 0 -26 17 -48 39 -22 21 -40 36 -40 33 0 -3
-18 11 -40 33 -21 21 -36 43 -33 49 3 6 2 8 -2 3 -11 -9 -86 63 -79 75 3 5 0
7 -7 6 -6 -2 -27 16 -45 40 -19 24 -34 40 -34 35 0 -4 -9 5 -19 21 -11 17 -17
35 -14 40 3 6 3 8 -2 4 -14 -13 -90 96 -79 114 4 6 3 8 -3 5 -14 -9 -46 40
-37 55 4 6 3 8 -3 5 -6 -4 -17 8 -24 26 -7 17 -15 34 -18 37 -17 15 -42 80
-36 91 5 7 4 10 -2 6 -11 -7 -74 139 -77 178 0 14 -4 25 -8 25 -8 0 -29 72
-33 111 -1 14 -4 30 -7 35 -11 18 -29 122 -32 186 -2 37 -7 71 -10 77 -9 14
-6 301 3 301 4 0 6 15 5 33 -3 32 21 189 33 217 3 8 6 22 7 30 4 44 30 129 39
123 6 -4 7 -1 2 6 -4 7 0 29 8 49 8 21 25 63 38 94 12 31 27 54 32 51 6 -3 7
-1 3 5 -8 13 61 152 75 152 5 0 8 3 7 8 -3 15 25 61 35 55 6 -3 7 -1 3 5 -9
15 23 64 37 55 6 -3 7 -1 3 5 -4 7 4 23 17 36 14 14 23 27 21 29 -2 2 6 15 18
28 13 14 38 44 56 67 19 23 38 39 43 36 5 -3 8 -1 7 4 -5 16 62 83 75 76 7 -4
9 -3 4 1 -7 8 58 75 74 75 4 0 11 9 14 21 6 17 9 18 23 7 9 -7 13 -8 9 -2 -7
11 92 94 112 94 5 0 12 7 15 16 4 9 13 14 21 10 9 -3 15 1 15 10 0 11 6 15 20
11 11 -3 18 -2 15 3 -3 4 2 11 11 14 8 3 12 11 8 17 -4 7 -3 9 3 6 5 -3 40 9
76 27 37 19 67 32 67 30 0 -3 11 3 25 12 14 9 32 14 40 10 9 -3 14 -2 11 3 -7
11 22 23 35 15 5 -3 9 0 9 5 0 6 7 11 15 11 8 0 23 4 33 10 29 16 132 41 142
35 6 -3 10 -2 10 3 0 11 122 35 189 36 28 1 51 5 51 9 0 5 10 5 21 2 12 -4 19
-3 16 1 -3 5 56 6 131 2 76 -4 148 -7 162 -7z m-810 -83 c-14 -6 -52 -23 -85
-37 -33 -14 -65 -32 -72 -41 -7 -8 -13 -12 -13 -7 0 10 -72 -27 -129 -66 -25
-17 -50 -30 -58 -30 -7 0 -13 -4 -13 -8 0 -4 -27 -27 -60 -52 -33 -24 -56 -48
-52 -52 4 -5 2 -5 -5 -1 -16 9 -235 -211 -297 -297 -26 -37 -52 -67 -57 -67
-5 0 -9 -5 -9 -11 0 -14 -100 -182 -114 -191 -7 -5 -6 -8 4 -8 11 0 12 -3 3
-8 -6 -4 -25 -37 -41 -74 -17 -36 -34 -68 -39 -70 -4 -3 -3 -4 3 -2 5 1 -1
-21 -14 -48 -13 -27 -21 -56 -18 -63 3 -10 0 -12 -11 -8 -11 4 -14 2 -9 -5 4
-6 -2 -42 -13 -79 -23 -81 -38 -156 -47 -238 -3 -33 -9 -64 -13 -70 -14 -21
-4 -359 14 -470 10 -60 18 -118 19 -127 0 -10 4 -18 8 -18 4 0 7 -3 6 -7 -6
-22 50 -198 96 -305 9 -21 13 -38 9 -38 -5 0 -3 -4 2 -8 6 -4 23 -33 39 -65
16 -31 33 -60 38 -63 5 -3 7 -12 4 -20 -3 -8 -1 -14 3 -14 5 0 30 -33 55 -74
26 -41 59 -88 74 -104 16 -17 27 -37 26 -46 -1 -8 1 -15 4 -13 13 3 62 -35 62
-49 0 -15 157 -174 173 -174 6 0 7 -3 4 -7 -4 -3 3 -11 16 -18 12 -6 21 -17
19 -24 -1 -7 2 -10 7 -6 6 3 44 -19 84 -50 41 -30 79 -55 85 -55 6 0 14 -4 17
-10 3 -6 -17 -9 -52 -8 -50 1 -72 9 -158 56 -55 30 -106 54 -112 55 -7 0 -11
3 -8 5 3 3 -20 22 -50 42 -30 20 -52 40 -48 45 5 4 3 5 -4 1 -7 -4 -29 9 -53
30 -22 20 -40 33 -40 29 0 -3 -50 42 -111 102 -123 120 -242 261 -232 276 3 6
2 7 -3 4 -12 -7 -118 159 -118 184 0 10 -3 16 -7 14 -8 -6 -74 136 -71 153 2
6 -1 12 -6 12 -11 0 -44 99 -36 111 3 5 1 9 -4 9 -10 0 -36 108 -58 245 -22
139 -12 442 17 496 4 9 6 19 3 22 -8 8 52 216 82 285 45 102 107 222 116 222
4 0 7 3 5 8 -3 11 59 107 123 187 106 135 283 301 422 396 49 33 88 58 88 55
0 -4 9 3 19 13 23 23 315 171 337 171 9 0 12 5 8 12 -4 6 -3 9 2 5 5 -3 61 12
124 33 107 37 177 52 120 28z m1330 -9 c36 -11 72 -22 80 -24 8 -2 40 -13 70
-25 30 -11 59 -22 64 -23 27 -6 292 -147 362 -193 154 -100 320 -246 459 -404
22 -25 43 -44 48 -42 5 1 6 -2 3 -7 -3 -4 9 -28 27 -52 49 -65 78 -115 70
-122 -3 -4 -1 -7 5 -7 16 0 84 -138 76 -152 -4 -6 -3 -8 3 -5 16 10 102 -215
120 -312 2 -14 6 -28 9 -33 3 -4 -1 -8 -8 -8 -9 0 -10 -2 -1 -8 33 -21 45
-380 17 -537 -8 -49 -17 -99 -19 -110 -6 -43 -29 -105 -37 -105 -5 0 -7 -4 -4
-9 8 -13 -23 -111 -35 -111 -6 0 -8 -4 -4 -9 5 -9 -82 -196 -121 -256 -10 -17
-30 -48 -42 -68 -13 -20 -29 -34 -35 -30 -6 3 -7 1 -3 -5 16 -26 -217 -280
-344 -377 -70 -53 -81 -65 -74 -77 3 -4 -2 -5 -10 -2 -8 3 -48 -18 -94 -50
-44 -31 -100 -66 -123 -77 -24 -11 -60 -29 -79 -39 -41 -21 -159 -27 -126 -7
10 7 50 36 89 64 38 29 74 50 80 46 6 -3 7 -2 4 4 -3 5 3 17 14 26 10 9 19 15
19 13 0 -2 38 34 85 80 47 46 85 88 85 93 0 5 8 12 18 15 9 3 22 16 27 28 6
13 16 22 23 20 7 -1 11 2 10 7 -2 5 18 37 43 72 25 35 58 85 73 112 16 26 32
47 37 47 5 0 8 3 7 8 -2 4 15 41 37 82 21 41 40 80 41 85 2 6 16 42 32 80 56
134 111 354 112 443 0 18 3 31 8 28 8 -5 7 407 -1 443 -4 13 -9 48 -13 79 -3
30 -19 103 -35 161 -15 58 -26 109 -23 113 3 4 1 8 -4 8 -10 0 -43 100 -36
112 3 4 1 8 -4 8 -6 0 -18 20 -28 44 -10 24 -23 42 -28 39 -5 -4 -6 -1 -2 5 6
10 -11 61 -25 72 -3 3 -20 29 -36 57 -16 29 -33 50 -38 45 -4 -4 -5 -1 -1 6 4
7 -2 25 -13 41 -12 16 -21 34 -21 40 0 6 -4 11 -8 11 -5 0 -29 28 -54 63 -56
76 -94 117 -102 111 -3 -2 -4 -1 -1 2 7 10 -14 34 -108 122 -53 49 -93 80
-100 76 -7 -4 -9 -4 -5 1 4 4 -16 26 -45 48 -29 22 -55 45 -58 50 -3 5 -9 8
-13 8 -10 -2 -180 100 -188 113 -5 7 -8 6 -8 -4 0 -9 -3 -11 -8 -4 -6 8 -63
36 -82 40 -14 2 -94 44 -85 44 6 0 39 -10 75 -21z m-1285 -3329 c11 4 29 5 40
1 18 -6 53 -6 65 -1 3 1 22 4 43 5 27 3 36 1 31 -8 -5 -8 -3 -8 7 1 7 6 19 12
27 12 8 0 10 -5 6 -12 -6 -10 -4 -10 7 0 7 6 19 12 27 12 8 0 10 -5 6 -12 -6
-10 -4 -10 7 0 7 6 19 12 27 12 8 0 10 -5 6 -12 -6 -10 -4 -10 7 0 7 6 19 12
27 12 8 0 10 -5 6 -12 -6 -10 -4 -10 7 0 7 6 19 12 27 12 8 0 10 -5 6 -12 -6
-10 -4 -10 7 0 7 6 19 12 27 12 8 0 10 -5 6 -12 -6 -10 -4 -10 7 -2 20 16 82
16 72 1 -5 -9 -3 -9 8 -1 20 16 82 16 72 1 -5 -9 -3 -9 8 -1 20 16 82 16 72 1
-5 -9 -3 -9 8 -1 20 16 82 16 72 1 -5 -9 -3 -9 8 -1 20 16 82 16 72 1 -5 -9
-3 -9 8 -1 20 16 81 16 73 1 -5 -8 -3 -8 7 1 7 6 19 12 27 12 8 0 10 -5 6 -12
-6 -10 -4 -10 7 0 7 6 19 12 27 12 8 0 10 -5 6 -12 -6 -10 -4 -10 7 0 7 6 19
12 27 12 8 0 10 -5 6 -12 -6 -10 -4 -10 7 0 7 6 19 12 27 12 8 0 10 -5 6 -12
-5 -8 0 -7 11 2 13 11 19 12 22 3 3 -8 12 -9 26 -4 12 5 31 5 42 1 11 -4 29
-4 40 0 11 4 29 4 40 0 11 -4 30 -4 41 1 12 4 25 5 28 2 3 -3 55 -6 116 -6 79
1 108 -3 103 -11 -3 -6 0 -6 8 2 7 6 19 12 27 12 8 0 10 -5 6 -12 -5 -8 0 -7
11 2 14 12 19 12 23 2 3 -10 7 -10 20 0 12 10 16 10 19 1 3 -9 10 -10 24 -3
10 6 19 7 19 3 0 -4 65 -8 145 -7 80 0 148 -3 151 -8 3 -5 0 -16 -8 -25 -9
-12 -9 -15 0 -9 7 4 12 2 12 -6 0 -8 -6 -20 -12 -27 -10 -11 -10 -13 0 -7 7 4
12 2 12 -6 0 -8 -6 -20 -12 -27 -10 -11 -10 -13 0 -7 7 4 12 2 12 -6 0 -8 -6
-20 -12 -27 -10 -11 -10 -13 0 -7 7 4 12 2 12 -6 0 -8 -6 -20 -12 -27 -10 -11
-10 -13 0 -7 7 4 12 2 12 -6 0 -8 -6 -20 -12 -27 -10 -11 -10 -13 0 -7 7 4 12
2 12 -6 0 -8 -6 -20 -12 -27 -10 -11 -10 -13 0 -7 7 4 12 2 12 -6 0 -8 -6 -20
-12 -27 -10 -11 -10 -13 0 -7 16 9 16 -16 0 -33 -10 -11 -10 -13 0 -7 16 9 16
-16 0 -33 -10 -11 -10 -13 0 -7 7 4 12 2 12 -6 0 -8 -6 -20 -12 -27 -10 -11
-10 -13 0 -7 7 4 12 2 12 -6 0 -8 -6 -20 -12 -27 -10 -11 -10 -13 0 -7 7 4 12
2 12 -6 0 -8 -6 -20 -12 -27 -10 -11 -10 -13 0 -7 7 4 12 2 12 -6 0 -8 -6 -20
-12 -27 -10 -11 -10 -13 0 -7 7 4 12 2 12 -6 0 -8 -6 -20 -12 -27 -10 -11 -10
-13 0 -7 7 4 12 2 12 -6 0 -8 -6 -20 -12 -27 -10 -11 -10 -13 0 -7 16 9 16
-16 0 -33 -10 -11 -10 -13 0 -7 7 4 12 2 12 -6 0 -8 -6 -20 -12 -27 -10 -11
-10 -13 0 -7 7 4 12 2 12 -6 0 -8 -6 -20 -12 -27 -10 -11 -10 -13 0 -7 16 9
16 -16 0 -33 -10 -11 -10 -13 0 -7 16 9 16 -16 0 -33 -10 -11 -10 -13 0 -7 7
4 12 2 12 -6 0 -8 -6 -20 -12 -27 -10 -11 -10 -13 0 -7 7 4 12 2 12 -6 0 -8
-6 -20 -12 -27 -10 -11 -10 -13 0 -7 15 9 17 -20 1 -30 -8 -4 -7 -9 2 -16 11
-8 10 -9 -3 -4 -10 3 -20 1 -24 -5 -3 -6 -11 -6 -17 -2 -7 5 -47 8 -90 7 -71
-2 -77 0 -65 15 12 15 11 15 -7 0 -24 -19 -89 -24 -79 -6 5 8 3 8 -7 -1 -16
-14 -43 -16 -34 -2 4 6 -2 7 -17 2 -13 -4 -36 -6 -53 -5 -16 2 -69 3 -117 4
-62 1 -86 5 -81 13 5 8 3 8 -8 0 -20 -16 -82 -16 -72 -1 5 9 3 9 -8 1 -11 -9
-35 -11 -69 -5 -2 1 14 20 35 44 l40 42 -45 -41 c-35 -32 -53 -42 -80 -42 -27
0 -30 2 -15 8 11 4 23 6 26 4 3 -2 25 17 49 41 24 25 41 45 37 45 -4 0 0 15
10 33 9 17 18 34 18 37 5 28 19 50 32 50 13 0 11 -6 -8 -27 -20 -23 -18 -22
14 5 48 40 70 42 32 2 -16 -17 -27 -30 -24 -30 2 0 56 52 119 116 63 64 109
114 103 110 -22 -12 -14 11 12 41 22 24 25 25 22 8 -1 -11 6 -28 16 -37 17
-15 18 -20 6 -35 -12 -16 -12 -17 1 -6 14 10 70 14 70 4 0 -3 -8 -14 -17 -25
-10 -12 -4 -9 12 6 17 15 42 29 57 32 15 2 32 7 38 11 21 13 9 -10 -22 -42
-18 -18 -30 -33 -27 -33 2 0 38 34 79 76 41 42 69 73 61 69 -11 -6 -13 -3 -8
14 3 13 3 21 0 18 -6 -6 -41 26 -37 34 2 3 -13 4 -32 3 -38 -3 -38 1 0 46 l21
25 -23 -20 -23 -19 9 24 c5 14 7 31 5 38 -3 7 3 23 13 35 19 21 19 21 0 7 -18
-14 -19 -13 -13 8 3 13 3 21 0 18 -8 -8 -44 24 -38 34 3 4 -1 8 -8 7 -6 0 -23
1 -36 1 -21 2 -22 4 -10 20 13 16 12 16 -6 1 -38 -30 -49 -34 -41 -13 6 15 1
14 -21 -7 -33 -32 -105 -41 -81 -11 22 29 -32 -17 -80 -68 -36 -37 -43 -41
-38 -22 2 13 2 22 -1 19 -6 -7 -41 26 -36 35 1 3 -7 4 -19 0 -16 -4 -19 -2
-12 9 13 22 -48 -32 -86 -76 -19 -22 -24 -31 -12 -21 23 20 23 20 16 0 -4 -10
-16 -30 -28 -44 -14 -16 -15 -20 -3 -11 20 16 22 8 5 -22 -6 -12 -12 -30 -13
-40 -2 -21 -22 -43 -31 -34 -3 3 -2 12 2 19 4 7 9 19 10 28 1 8 5 26 8 40 14
58 16 89 6 95 -6 3 -8 11 -4 16 3 5 0 8 -8 7 -7 -2 -12 2 -11 8 1 5 -12 9 -28
8 -34 -2 -35 3 -12 35 9 14 11 21 5 17 -15 -9 -15 -1 -1 26 9 16 8 19 -2 13
-9 -6 -11 -2 -7 13 4 12 2 22 -2 22 -5 0 -12 10 -16 22 -6 20 -54 76 -54 63 0
-3 -5 -3 -11 0 -7 5 -4 14 8 28 14 18 12 17 -10 -2 -25 -23 -32 -22 -27 4 1 6
-4 4 -11 -2 -7 -7 -19 -13 -27 -13 -8 0 -10 5 -6 13 6 10 4 10 -7 0 -7 -7 -19
-13 -27 -13 -12 0 -12 3 -1 18 7 9 1 6 -13 -7 -16 -13 -34 -21 -43 -18 -10 5
-46 -24 -112 -90 -87 -86 -102 -97 -135 -98 -41 -2 -103 -49 -91 -68 4 -6 1
-7 -7 -2 -7 4 -26 8 -42 7 -19 0 -26 3 -21 11 5 9 3 9 -8 1 -8 -7 -26 -12 -42
-12 -20 0 -29 6 -33 24 -3 13 -13 24 -21 24 -8 0 -12 4 -9 8 2 4 -7 7 -20 7
-16 -1 -41 -18 -67 -45 -23 -24 -36 -40 -29 -36 16 10 15 -6 -3 -30 -13 -17
-17 -17 -14 2 0 4 -5 10 -12 15 -10 6 -10 11 2 25 13 16 12 16 -8 4 -19 -12
-24 -12 -42 4 -12 11 -21 16 -21 12 0 -4 -6 -4 -12 1 -7 4 -21 6 -32 4 -13 -2
-16 1 -10 11 6 10 5 10 -9 -1 -9 -7 -23 -11 -31 -8 -8 3 -20 -1 -26 -9 -7 -8
-18 -14 -24 -14 -7 0 -18 -6 -24 -12 -7 -7 -18 -13 -25 -13 -6 0 -16 -10 -23
-23 -6 -12 -15 -26 -19 -30 -5 -4 -5 -1 0 7 5 10 4 12 -4 7 -6 -4 -9 -12 -5
-17 3 -5 -1 -21 -10 -34 -10 -14 -12 -25 -5 -27 6 -2 0 -17 -13 -33 -12 -17
-15 -24 -6 -17 14 11 16 10 17 -10 4 -74 7 -85 19 -81 6 3 12 1 12 -4 0 -5 -6
-15 -12 -23 -11 -12 -10 -12 5 -1 23 18 34 7 16 -16 -13 -16 -12 -17 4 -4 25
20 34 5 11 -21 l-19 -23 26 23 c20 17 33 21 53 16 l27 -6 -23 -27 c-23 -26
-23 -26 8 2 38 34 66 37 38 5 l-19 -23 26 23 c39 35 57 27 23 -10 l-29 -33 35
32 c28 26 42 31 71 28 31 -3 42 2 70 32 19 20 28 33 22 29 -21 -12 -15 16 10
43 19 23 19 24 1 8 -20 -16 -22 -16 -37 1 -16 18 -14 32 6 32 5 0 7 -7 3 -15
-4 -12 -2 -13 15 -2 17 10 22 9 34 -7 13 -17 12 -21 -3 -33 -16 -12 -16 -13 1
-7 20 7 23 -6 5 -25 -11 -10 -9 -11 6 -5 16 6 18 4 12 -11 -4 -11 -4 -16 0
-12 4 4 16 0 26 -10 18 -16 18 -17 -9 -47 l-28 -31 31 28 c25 22 37 27 58 21
26 -6 27 -7 9 -28 -16 -19 -16 -19 8 2 32 27 58 31 38 5 -13 -17 -13 -17 7 0
31 26 51 22 28 -5 l-19 -23 25 21 c14 12 36 27 50 34 l25 13 -25 -30 c-14 -16
-8 -12 13 9 21 21 42 38 47 38 12 0 23 -38 14 -51 -4 -7 -3 -9 3 -6 6 4 17 0
24 -9 10 -13 10 -19 -1 -37 -12 -21 -12 -22 7 -4 19 16 20 16 36 -1 10 -10 14
-21 11 -25 -3 -3 5 -3 18 0 21 6 22 5 8 -13 -14 -18 -14 -18 6 -1 30 25 38 8
12 -22 -22 -24 -22 -24 10 2 46 37 62 34 26 -6 l-29 -32 37 34 c38 35 63 37
37 4 -12 -16 -11 -15 8 1 22 18 83 32 83 19 0 -4 -10 -18 -22 -32 -21 -24 -21
-24 -2 -8 21 18 22 17 28 -8 4 -16 2 -33 -5 -41 -10 -12 -9 -13 6 -7 14 5 17
3 12 -10 -4 -12 -2 -14 10 -10 12 5 15 2 10 -10 -4 -11 -2 -14 9 -10 17 6 19
-8 2 -25 -16 -16 -41 -16 -32 0 6 10 5 10 -7 1 -20 -16 -361 -15 -352 1 3 6 0
6 -8 -2 -17 -16 -43 -16 -33 1 6 9 5 9 -7 0 -9 -7 -64 -11 -154 -12 -77 0
-152 -2 -168 -4 -15 -3 -30 0 -33 5 -3 5 -11 4 -19 -2 -10 -8 -15 -8 -20 0 -5
8 -10 8 -20 0 -9 -8 -15 -8 -20 0 -3 6 -11 7 -18 3 -16 -9 -58 -10 -63 -1 -3
5 -14 3 -25 -2 -14 -8 -19 -7 -19 2 0 9 -3 9 -12 0 -16 -16 -41 -16 -32 1 6 9
4 9 -7 -1 -17 -16 -42 -16 -33 1 6 9 4 9 -7 -1 -17 -16 -42 -16 -33 1 6 9 4 9
-7 -1 -17 -16 -42 -16 -33 1 6 9 4 9 -7 -1 -17 -16 -43 -16 -33 1 6 9 4 9 -7
1 -8 -7 -46 -11 -89 -10 -41 1 -83 -2 -92 -7 -11 -5 -18 -4 -18 3 0 7 -6 8
-19 0 -26 -13 -34 -13 -25 3 6 9 4 9 -7 -1 -17 -16 -43 -16 -33 1 6 9 4 9 -7
1 -20 -16 -81 -16 -73 -1 5 8 3 8 -7 -1 -17 -16 -43 -16 -33 1 6 9 5 9 -7 1
-8 -7 -39 -11 -69 -10 -30 1 -60 -2 -66 -6 -10 -7 -18 50 -15 110 0 6 1 23 1
37 0 14 0 32 0 40 0 8 0 26 0 40 0 14 0 32 0 40 0 8 0 26 0 40 0 14 0 32 0 40
0 8 0 27 -1 43 0 15 1 36 1 47 1 11 1 26 1 33 0 6 -1 23 -1 37 0 14 0 32 0 40
0 8 0 26 0 40 0 14 0 32 0 40 0 8 0 26 0 40 0 14 0 32 0 40 1 8 1 44 1 80 0
36 0 71 0 78 0 6 -1 30 -2 52 -2 60 0 65 17 65 9 0 12 -5 8 -12 -6 -10 -4 -10
7 0 16 15 43 16 33 1 -5 -8 -1 -8 13 0 11 5 63 10 115 9 52 -1 100 2 106 6 7
4 12 2 12 -4 0 -6 5 -8 11 -4 7 4 27 8 46 10 24 2 32 0 26 -9 -4 -7 1 -6 11 2
13 11 19 12 25 3 4 -7 12 -8 21 -2 21 14 32 12 24 -2 -6 -10 -4 -10 7 -2 20
16 82 16 72 1 -5 -9 -3 -9 8 -1 8 6 45 12 83 12 38 1 71 4 73 6 3 3 15 1 27
-3 11 -5 30 -5 41 -1z m1093 -155 c16 -19 22 -39 22 -71 0 -45 -13 -66 -62
-98 -24 -15 -150 -36 -222 -36 -40 0 -43 -2 -65 -47 -16 -32 -25 -73 -29 -120
-9 -130 24 -165 159 -165 44 0 79 -2 79 -5 0 -2 -5 -13 -10 -24 -9 -17 -22
-19 -99 -19 -75 0 -93 3 -122 23 -71 47 -89 144 -50 266 23 73 17 91 -30 91
-19 0 -29 5 -29 14 0 20 11 25 67 31 37 4 53 12 68 32 42 56 111 125 140 141
70 37 143 31 183 -13z m636 -147 c7 -13 6 -38 -6 -95 -10 -48 -13 -82 -7 -89
5 -6 28 -9 54 -7 55 6 61 -12 10 -33 -46 -19 -114 -19 -121 1 -4 8 1 45 9 81
17 78 13 102 -20 115 -48 18 -86 -22 -108 -111 -31 -131 -35 -140 -55 -140
-27 0 -27 -3 20 207 13 58 34 83 52 65 17 -17 36 -15 66 8 31 25 90 24 106 -2z
m-2801 -25 c-5 -15 -3 -16 8 -5 7 6 19 12 27 12 8 0 10 -5 6 -12 -6 -10 -4
-10 7 -2 8 7 41 12 74 12 33 0 69 3 79 7 15 7 17 5 11 -6 -8 -12 -6 -12 8 0
23 18 34 7 16 -16 -8 -9 -9 -14 -2 -10 15 10 15 -52 -1 -72 -8 -11 -8 -13 2
-7 7 4 12 2 12 -6 0 -8 -6 -20 -12 -27 -10 -11 -10 -13 0 -7 7 4 12 2 12 -6 0
-8 -6 -20 -12 -27 -10 -11 -10 -13 0 -7 7 4 12 2 12 -6 0 -8 -6 -20 -12 -27
-10 -11 -10 -13 0 -7 7 4 12 2 12 -6 0 -8 -6 -20 -12 -27 -10 -11 -10 -13 0
-7 7 4 12 2 12 -6 0 -8 -6 -20 -12 -27 -10 -11 -10 -13 0 -7 16 9 16 -16 0
-33 -9 -10 -9 -12 -1 -7 15 8 15 -53 -1 -73 -8 -11 -8 -13 2 -7 7 4 12 2 12
-6 0 -8 -6 -20 -12 -27 -10 -11 -10 -13 0 -7 16 9 16 -16 0 -33 -9 -10 -9 -12
-1 -7 15 8 15 -53 -1 -73 -8 -11 -8 -13 2 -7 7 4 12 2 12 -6 0 -8 -6 -20 -12
-27 -10 -11 -10 -13 0 -7 20 11 14 -19 -7 -38 -16 -14 -17 -21 -8 -31 7 -7 14
-12 17 -10 10 6 145 -74 143 -84 -2 -6 3 -8 11 -5 7 3 38 -8 67 -25 30 -16 96
-51 147 -76 50 -26 92 -51 92 -55 0 -4 -16 -8 -35 -8 -24 0 -33 4 -28 12 5 7
2 7 -8 -1 -8 -7 -24 -12 -34 -12 -11 0 -31 0 -45 -1 -14 0 -38 1 -55 3 -16 1
-36 -2 -43 -7 -9 -7 -16 -5 -22 3 -5 9 -10 10 -14 2 -10 -16 -39 -14 -30 2 6
9 4 9 -7 -1 -17 -16 -42 -16 -33 1 6 9 4 9 -7 -1 -7 -6 -19 -12 -27 -12 -8 0
-10 5 -6 12 6 10 4 10 -8 0 -11 -9 -36 -12 -73 -10 -31 2 -59 0 -61 -4 -9 -14
-36 -9 -28 5 6 9 4 9 -7 -1 -17 -16 -42 -16 -33 1 6 9 4 9 -7 -1 -17 -16 -43
-16 -33 1 6 9 5 9 -7 1 -8 -7 -32 -12 -54 -12 -22 0 -49 -3 -59 -7 -15 -7 -17
-5 -11 6 6 11 5 12 -6 1 -17 -16 -42 -16 -33 1 6 9 4 9 -7 -1 -17 -16 -43 -16
-33 1 6 9 5 9 -7 0 -9 -7 -32 -11 -53 -10 -20 2 -39 0 -42 -5 -9 -14 -36 -9
-28 5 6 9 4 9 -7 -1 -17 -16 -43 -16 -33 1 6 9 5 9 -7 1 -8 -7 -27 -12 -42
-12 -27 0 -27 1 -11 20 10 10 23 17 30 14 7 -3 11 0 8 7 -2 7 99 115 226 242
126 126 230 234 230 238 0 5 -7 7 -14 4 -10 -4 -13 -1 -9 9 3 9 0 14 -8 12 -8
-2 -13 3 -11 10 1 8 -1 11 -6 8 -12 -7 -64 48 -55 59 5 4 2 5 -4 1 -8 -4 -32
11 -62 41 -26 26 -57 53 -67 60 -11 6 -18 17 -16 25 2 7 0 10 -4 5 -10 -9 -45
23 -38 35 3 4 0 7 -8 6 -7 -2 -12 3 -10 10 1 8 -2 11 -7 8 -5 -3 -27 12 -50
34 -23 22 -46 40 -52 40 -5 0 -8 3 -6 8 5 7 -18 33 -24 28 -2 -2 -17 9 -34 25
-24 24 -27 29 -12 29 12 0 16 -4 11 -12 -6 -10 -5 -10 7 -2 8 7 32 12 54 12
22 0 57 3 78 6 27 5 36 3 31 -5 -5 -8 -1 -8 14 0 11 6 44 10 74 9 29 -1 59 1
66 6 7 4 12 2 12 -4 0 -7 9 -5 22 4 28 20 29 20 21 -1z m3132 7 c-4 -6 2 -7
17 -1 13 4 31 5 41 2 9 -3 42 -5 72 -5 32 2 55 -2 55 -8 0 -6 7 -4 17 3 13 11
17 11 20 2 3 -9 10 -10 24 -3 10 6 19 7 19 3 0 -4 46 -9 103 -9 208 -3 209 -3
201 -17 -5 -9 -4 -9 7 1 7 6 18 12 23 12 6 0 -10 -20 -34 -45 -41 -42 -78 -64
-50 -30 30 36 0 10 -55 -47 l-60 -63 55 50 55 50 -49 -52 c-27 -29 -53 -50
-57 -48 -4 3 -22 -12 -41 -33 -19 -20 -82 -82 -142 -137 -59 -55 -113 -109
-118 -120 -6 -11 -7 -17 -3 -12 11 9 46 -23 39 -35 -3 -4 0 -7 8 -6 7 2 12 -3
10 -10 -1 -6 4 -11 10 -10 7 2 12 -3 10 -10 -1 -8 2 -11 8 -7 12 8 41 -25 33
-38 -2 -4 1 -6 9 -5 7 2 12 -3 10 -10 -1 -6 4 -11 10 -10 7 2 12 -3 10 -10 -1
-8 2 -11 6 -8 12 7 44 -28 35 -38 -5 -4 -1 -6 7 -4 8 1 14 -3 12 -10 -1 -6 4
-11 10 -10 7 2 12 -3 10 -10 -1 -6 4 -11 10 -10 7 2 12 -4 10 -12 -2 -8 0 -12
4 -7 10 9 45 -23 38 -35 -3 -4 0 -7 8 -6 7 2 12 -2 11 -9 -2 -8 4 -10 14 -6
12 5 15 2 10 -10 -4 -10 -2 -16 6 -14 7 1 11 -5 9 -13 -2 -8 0 -12 4 -7 10 9
45 -23 38 -35 -3 -4 0 -7 8 -6 7 2 12 -3 10 -10 -1 -8 1 -11 6 -8 5 3 26 -13
48 -35 l39 -41 -70 6 c-38 4 -98 7 -132 7 -44 1 -61 4 -56 13 3 7 1 6 -8 -2
-17 -16 -43 -16 -33 1 6 9 5 9 -7 0 -10 -8 -26 -10 -45 -5 -16 4 -55 7 -87 6
-41 -2 -55 1 -51 9 5 8 2 8 -7 -1 -17 -16 -43 -16 -33 1 6 9 5 9 -8 0 -8 -7
-18 -10 -21 -6 -4 3 -43 6 -87 6 -57 -1 -78 2 -73 11 5 8 3 8 -8 0 -20 -16
-81 -16 -73 -1 5 8 3 8 -7 -1 -17 -16 -43 -16 -33 1 6 9 4 9 -8 -1 -12 -9 -18
-10 -23 -2 -5 8 -11 8 -19 1 -7 -6 -23 -8 -37 -5 -13 3 -42 5 -64 5 -42 -2
-52 -2 -100 -1 l-30 1 25 19 c29 22 44 26 34 8 -4 -7 4 -3 17 8 13 12 38 30
54 40 30 18 30 18 15 -1 -8 -11 5 -3 29 18 44 37 72 49 55 24 -5 -7 -1 -5 8 5
9 10 40 31 70 46 70 37 100 53 118 63 8 5 34 18 58 29 39 19 60 39 27 26 -8
-3 -15 0 -15 6 0 7 -5 6 -15 -2 -12 -10 -15 -10 -15 2 0 8 6 20 13 27 10 11
10 13 0 7 -8 -4 -13 -2 -13 6 0 8 6 20 13 27 10 11 10 13 0 7 -8 -4 -13 -2
-13 6 0 8 6 20 13 27 8 10 8 12 0 7 -15 -8 -15 53 1 73 8 11 8 13 -1 8 -15
-10 -15 52 1 72 8 11 8 13 -1 8 -15 -10 -15 52 1 72 8 11 8 13 -1 8 -15 -10
-15 52 1 72 8 11 8 13 -1 8 -15 -10 -15 52 1 72 8 11 8 13 -1 8 -15 -10 -15
52 1 72 8 11 8 13 -1 7 -8 -4 -13 -2 -13 6 0 8 6 20 13 27 10 11 10 13 0 7
-17 -9 -17 16 -1 32 14 14 42 16 33 2z m-1670 -21 c9 -27 44 -39 116 -39 45 0
59 -3 59 -15 0 -8 -12 -18 -27 -21 -49 -11 -113 -88 -113 -134 0 -27 41 -50
90 -50 37 0 50 -4 50 -15 0 -20 -40 -29 -102 -23 -89 9 -113 70 -58 146 37 52
38 68 3 75 -38 7 -52 -1 -68 -39 -13 -33 -45 -47 -45 -21 0 25 64 157 76 157
7 0 16 -9 19 -21z m985 -17 c0 -9 -18 -76 -38 -147 -21 -72 -37 -136 -34 -143
2 -7 22 -12 47 -12 80 0 62 -32 -24 -43 -48 -6 -52 -10 -72 -71 -30 -95 -86
-146 -158 -146 -33 0 -86 32 -101 61 -17 31 -6 97 21 125 25 27 98 51 169 56
35 3 47 9 56 27 21 42 8 52 -55 45 -46 -5 -61 -3 -74 11 -23 22 -21 47 8 144
27 90 46 119 64 97 8 -9 5 -34 -12 -92 -12 -43 -21 -87 -19 -97 6 -29 48 -40
82 -22 36 19 46 36 75 137 22 76 39 103 57 92 4 -3 8 -13 8 -22z m-1175 -27
c29 -28 32 -64 8 -94 -15 -17 -31 -21 -103 -23 -66 -2 -85 -6 -88 -18 -6 -36
22 -52 109 -61 108 -12 120 -16 95 -34 -20 -15 -135 -11 -194 7 -84 26 -70
173 22 229 46 28 120 26 151 -6z m888 13 c-4 -7 -8 -20 -8 -29 0 -9 -9 -27
-19 -38 -19 -21 -19 -21 -1 -15 20 8 16 -4 -14 -40 -9 -11 -10 -16 -3 -12 14
8 17 -20 2 -29 -5 -3 -7 -12 -3 -20 3 -9 0 -22 -7 -30 -11 -13 -10 -14 4 -9
21 8 21 -4 -1 -28 -18 -20 -48 -25 -37 -5 6 10 4 10 -7 0 -7 -7 -19 -13 -27
-13 -8 0 -10 5 -6 13 6 8 3 8 -9 -1 -9 -8 -22 -12 -29 -9 -7 2 -21 0 -30 -5
-10 -5 -18 -5 -18 0 0 5 -16 7 -36 6 -28 -3 -35 0 -30 11 3 8 2 14 -2 14 -20
-3 -23 3 -11 18 10 11 10 14 2 9 -19 -11 -16 14 4 38 10 12 11 15 3 9 -24 -22
-33 -14 -15 13 9 15 12 23 6 20 -20 -13 -11 12 16 46 15 18 20 27 10 19 -24
-19 -22 2 3 24 19 17 20 17 20 1 0 -16 1 -16 16 -1 27 26 29 7 3 -23 l-24 -27
30 25 c16 14 31 28 33 33 7 15 24 6 18 -10 -6 -16 -6 -16 12 0 10 9 36 19 57
22 l38 5 -34 -38 c-33 -36 -32 -36 11 4 38 35 76 63 88 64 2 0 0 -6 -5 -12z
m580 -655 c-5 -12 -3 -14 8 -7 17 10 69 13 69 3 0 -4 10 -5 23 -1 l22 5 -20
-24 -20 -24 25 21 c19 16 39 21 83 22 33 0 57 -1 55 -2 -1 -1 -21 -13 -43 -26
-35 -21 -38 -22 -25 -5 8 11 -5 3 -29 -18 -47 -39 -73 -49 -50 -19 7 9 -2 3
-21 -14 -42 -38 -91 -66 -75 -43 6 8 3 7 -6 -2 -8 -9 -31 -24 -50 -34 l-34
-18 20 24 c11 13 1 7 -22 -13 -52 -46 -80 -61 -88 -48 -3 5 -1 19 6 31 8 15 8
19 0 15 -16 -10 -13 6 6 34 16 24 16 24 0 11 -20 -16 -22 -8 -6 21 8 15 8 19
0 14 -14 -9 -14 0 -1 24 7 13 7 21 0 25 -17 10 -12 55 6 55 14 0 15 -2 3 -17
-13 -17 -12 -17 6 -2 11 9 35 17 53 17 30 1 32 -1 20 -16 -11 -15 -10 -15 8 1
31 26 52 22 28 -5 -14 -17 -11 -16 14 5 39 31 44 33 35 10z m-2163 -7 c0 -6 5
-5 12 2 7 7 19 12 27 12 10 0 8 -8 -10 -27 l-24 -28 31 28 c38 34 66 37 38 5
l-19 -23 26 23 c14 12 31 22 39 22 9 0 8 -6 -6 -22 l-19 -23 26 23 c14 12 37
22 51 22 21 0 26 -5 26 -27 0 -16 -5 -34 -12 -42 -8 -12 -8 -13 2 -7 24 14 12
-18 -20 -54 l-33 -35 33 29 c34 32 45 18 15 -18 -17 -20 -17 -20 0 -7 27 21
22 -11 -6 -37 -26 -24 -44 -19 -25 7 10 13 10 14 -2 4 -17 -15 -44 -17 -35 -3
4 6 -1 7 -11 3 -14 -5 -16 -3 -11 12 6 14 5 16 -6 7 -22 -18 -29 -1 -10 22
l18 21 -24 -20 c-16 -14 -25 -16 -28 -8 -2 7 -11 9 -19 6 -8 -3 -14 0 -14 6 0
6 -6 11 -14 11 -8 0 -22 7 -30 16 -9 8 -16 13 -16 9 0 -3 -5 -3 -11 0 -7 5 -4
14 8 28 l18 22 -24 -20 c-16 -14 -25 -16 -28 -8 -2 7 -11 9 -19 6 -8 -3 -14 0
-14 6 0 6 -3 10 -7 10 -23 -4 -24 4 -3 26 31 33 62 35 34 3 -15 -18 -13 -17
13 4 31 25 83 34 83 14z"/>
<path d="M1650 5535 c-15 -18 -45 -21 -34 -3 4 7 -7 2 -24 -10 -39 -28 -71
-73 -65 -90 3 -7 -3 -23 -13 -34 -11 -12 -13 -18 -6 -14 15 9 17 -20 2 -29 -6
-4 -8 -11 -5 -16 4 -5 2 -16 -3 -25 -8 -14 -10 -12 -16 10 -4 15 -4 31 -1 36
4 6 1 10 -5 10 -6 0 -10 6 -9 13 10 49 -44 123 -78 110 -12 -5 -14 -3 -8 7 4
7 -6 3 -22 -10 -17 -12 -35 -32 -41 -44 -27 -60 -35 -82 -33 -94 1 -8 -6 -23
-16 -35 -10 -11 -12 -17 -5 -13 18 11 15 -14 -5 -37 -10 -11 -12 -17 -5 -13
15 9 16 -4 1 -24 -7 -11 -12 -12 -15 -3 -3 7 -12 9 -20 6 -8 -3 -14 -1 -14 4
0 12 -40 9 -67 -5 -28 -15 -36 -15 -27 1 5 6 -7 -1 -25 -16 -19 -15 -39 -26
-46 -24 -6 3 -38 -23 -71 -56 -32 -34 -50 -55 -40 -47 19 14 18 13 -1 -25 -45
-90 -52 -106 -43 -100 14 9 12 -19 -2 -34 -9 -9 -9 -12 -1 -7 18 10 22 -17 4
-32 -9 -8 -10 -11 -3 -7 6 3 12 2 12 -4 0 -5 5 -22 11 -38 6 -15 10 -30 9 -32
-1 -2 4 -7 11 -12 10 -6 10 -11 -2 -26 -13 -17 -13 -17 4 -4 23 18 34 7 16
-16 -13 -16 -12 -17 4 -4 25 20 34 5 11 -20 -19 -22 -19 -22 4 -8 12 8 22 17
22 22 0 4 5 5 10 2 8 -5 7 -12 -2 -23 -11 -14 -9 -14 8 1 30 25 38 8 12 -22
-22 -24 -21 -24 8 2 34 30 49 35 40 12 -5 -14 -4 -14 16 0 37 25 43 17 12 -17
-26 -29 -25 -28 14 5 52 45 77 49 36 5 -16 -18 0 -6 35 25 36 31 69 57 75 57
6 0 -16 -28 -49 -62 -33 -35 -21 -25 28 22 48 46 87 87 87 89 0 3 -13 -8 -30
-24 -44 -42 -37 -19 12 39 23 28 34 44 24 36 -18 -14 -19 -14 -6 10 7 14 20
34 29 44 9 11 10 16 4 12 -19 -11 -16 14 5 37 9 11 11 17 5 13 -18 -10 -16 5
4 33 9 14 11 21 5 17 -8 -5 -9 -1 -3 15 11 32 28 34 30 4 1 -14 3 -36 4 -49 1
-13 6 -22 11 -18 5 3 7 -4 4 -16 -3 -12 -3 -21 1 -20 20 2 22 -5 5 -24 l-19
-23 24 20 c15 13 25 16 28 9 2 -7 14 -9 26 -6 22 5 22 4 -3 -23 -20 -23 -15
-21 19 8 55 46 75 48 35 5 l-29 -33 38 34 c36 34 47 48 27 36 -17 -11 -11 11
12 41 13 15 17 25 10 20 -18 -11 -15 14 6 37 9 11 11 17 5 13 -20 -11 -15 8 9
40 14 18 16 24 5 15 -24 -19 -21 1 5 35 15 19 16 24 5 15 -16 -12 -17 -12 -11
5 4 10 14 28 23 38 9 11 10 16 4 12 -18 -10 -16 5 4 33 9 14 11 21 5 17 -7 -4
-12 -2 -12 5 0 7 34 46 76 87 53 52 72 78 65 85 -7 7 -7 15 2 26 7 9 8 12 1 8
-6 -4 -19 2 -28 12 -11 12 -25 17 -38 13 -16 -4 -19 -2 -13 9 6 11 5 12 -6 2
-16 -15 -43 -17 -34 -3 9 15 -1 12 -15 -5z m75 -66 c0 -8 -18 -18 -44 -25 -25
-6 -48 -17 -53 -25 -4 -8 -26 -88 -48 -179 -64 -258 -58 -240 -85 -240 -27 0
-29 5 -65 169 -32 151 -53 144 -95 -29 -49 -203 -70 -261 -113 -306 -44 -45
-102 -67 -153 -58 -43 8 -97 49 -110 82 -15 40 -13 124 5 167 34 81 136 155
220 158 61 3 53 -22 -14 -45 -76 -26 -126 -63 -150 -112 -48 -100 -6 -196 86
-196 57 0 97 34 124 107 12 31 45 153 75 271 80 320 92 321 156 14 11 -54 34
-77 49 -51 5 7 23 72 41 144 17 71 38 137 45 145 12 13 94 30 119 25 6 -1 10
-8 10 -16z m-503 -388 c-3 -9 -10 -22 -16 -30 -8 -11 -8 -13 1 -7 17 9 6 -22
-16 -48 -9 -11 -10 -16 -3 -12 18 11 15 -2 -9 -35 -11 -16 -17 -29 -13 -29 4
0 -1 -9 -11 -20 -9 -10 -20 -19 -24 -18 -3 1 -14 -2 -24 -7 -30 -13 -56 20
-54 69 3 46 20 82 51 108 42 35 39 17 -4 -29 -39 -41 -36 -40 15 8 33 31 67
59 75 61 28 8 38 5 32 -11z"/>
<path d="M1859 5422 c-13 -15 -25 -43 -27 -62 -4 -51 -10 -63 -31 -57 -14 3
-35 -12 -73 -51 -29 -31 -44 -49 -34 -41 18 13 19 13 6 -11 -7 -14 -20 -34
-29 -44 -9 -11 -10 -16 -3 -12 15 9 17 -20 1 -30 -8 -4 -7 -9 2 -14 10 -7 10
-12 -2 -26 -9 -11 -9 -15 -1 -10 7 4 12 2 12 -6 0 -8 -6 -20 -12 -28 -11 -12
-10 -12 3 -2 20 15 33 4 17 -15 -8 -11 -7 -12 6 -7 9 3 16 1 16 -5 0 -6 7 -11
16 -11 8 0 13 -3 11 -7 -7 -11 115 -10 131 0 7 5 22 5 35 1 35 -11 86 -13 93
-3 3 5 10 9 17 9 6 0 -5 -17 -23 -37 -20 -22 -12 -17 17 11 60 57 84 55 32 -2
l-34 -37 35 33 c45 40 74 44 39 5 -23 -27 -23 -27 8 1 37 33 56 28 27 -6 -14
-17 -11 -16 11 4 17 14 41 27 55 27 14 0 32 1 40 1 8 0 42 -1 75 -4 32 -2 68
0 78 6 15 8 18 7 11 -4 -6 -10 -4 -10 9 1 33 27 30 0 -4 -37 l-34 -37 35 30
c19 17 36 33 38 38 2 4 8 4 14 1 5 -3 2 -15 -9 -27 -17 -21 -16 -21 8 1 39 35
57 27 23 -10 l-29 -33 35 33 c42 38 74 45 44 10 l-19 -23 26 23 c42 37 56 25
18 -15 l-34 -38 45 40 c24 22 50 47 56 55 7 8 16 12 20 8 4 -4 1 -16 -7 -25
-13 -16 -12 -17 4 -4 23 18 34 7 16 -16 -11 -15 -11 -16 1 -5 8 6 20 12 28 12
12 0 12 -3 1 -17 -13 -17 -12 -17 6 -2 11 8 26 14 33 13 6 -1 20 -2 29 -3 14
-1 13 -5 -8 -28 l-24 -28 31 28 c40 36 66 36 33 0 -13 -15 -2 -8 25 15 59 50
74 47 25 -6 l-34 -37 41 38 c39 36 41 37 57 19 13 -15 14 -21 4 -32 -6 -8 -2
-6 11 4 29 25 41 13 16 -16 l-19 -23 26 23 c14 12 31 22 39 22 9 0 8 -6 -6
-22 -17 -21 -16 -21 9 1 35 32 48 19 16 -17 l-24 -27 31 28 c43 39 65 35 28
-5 l-29 -33 35 33 c47 42 73 43 34 0 -24 -27 -21 -26 16 7 25 21 47 43 49 48
1 4 12 1 22 -9 16 -14 17 -20 6 -33 -11 -14 -10 -14 6 -2 25 20 34 5 11 -21
l-19 -23 26 23 c30 26 44 28 35 6 -5 -14 -4 -15 9 -4 21 17 31 5 14 -17 -11
-15 -10 -15 9 1 21 18 82 30 82 16 0 -3 -6 -12 -12 -20 -11 -12 -10 -12 4 -2
9 8 27 10 43 6 25 -6 26 -7 8 -28 -16 -19 -16 -19 8 2 36 32 58 29 28 -5 -14
-16 -5 -11 24 13 51 42 85 84 67 84 -6 0 -8 5 -5 10 3 6 -1 17 -9 26 -9 8 -16
12 -16 8 0 -3 -7 -1 -15 6 -13 11 -13 16 3 42 9 16 27 38 39 49 17 17 20 26
12 51 -4 17 -6 34 -4 39 3 4 -8 10 -25 14 -19 4 -28 11 -23 18 4 8 1 7 -9 -1
-17 -14 -72 -6 -62 9 3 5 -2 6 -10 3 -9 -3 -16 -2 -16 3 0 10 -52 9 -69 -2 -6
-3 -11 -1 -11 4 0 6 -19 -2 -41 -19 -23 -16 -45 -28 -49 -25 -4 3 -14 -3 -21
-13 -13 -15 -12 -16 4 -3 25 20 21 5 -10 -35 -16 -18 -29 -38 -29 -44 -1 -5
-2 -17 -3 -26 -1 -13 -4 -14 -16 -4 -8 6 -19 9 -25 5 -5 -3 -10 -2 -10 2 0 5
10 13 22 18 33 15 57 64 47 99 -5 16 -6 33 -2 39 3 6 1 7 -5 3 -7 -4 -12 -1
-12 7 0 9 -18 20 -44 28 -25 7 -42 17 -39 22 3 5 -4 4 -16 -2 -16 -9 -21 -9
-21 0 0 8 -4 8 -15 -1 -8 -7 -21 -10 -29 -7 -8 3 -36 -17 -67 -49 -29 -30 -50
-54 -46 -54 4 0 1 -12 -6 -27 -8 -16 -12 -34 -10 -40 5 -15 -6 -16 -27 -3 -12
8 -11 13 8 33 12 13 20 26 16 29 -3 4 0 17 7 30 8 12 14 35 14 50 0 16 3 27 6
25 4 -1 16 6 26 15 39 36 -2 139 -51 130 -13 -3 -16 0 -11 8 4 7 -6 2 -24 -11
-35 -26 -67 -69 -51 -69 7 0 7 -6 0 -20 -6 -11 -7 -20 -3 -19 23 4 23 -3 0
-21 -14 -11 -29 -29 -32 -40 -11 -34 -22 -22 -20 20 1 22 -1 37 -5 35 -16 -10
-32 23 -21 44 8 13 8 22 1 26 -6 4 -7 11 -4 17 4 7 2 8 -4 4 -7 -4 -12 -1 -12
8 0 9 -3 15 -7 15 -5 -1 -10 0 -13 1 -31 12 -64 2 -93 -29 -17 -19 -26 -31
-19 -26 11 6 12 3 3 -14 -7 -11 -16 -21 -22 -21 -6 0 -7 6 -3 13 5 6 -7 -1
-26 -17 -19 -16 -39 -35 -43 -42 -5 -8 -13 -12 -18 -9 -5 4 -7 10 -4 15 3 5 1
11 -5 15 -6 4 -7 11 -4 17 4 6 2 8 -4 4 -6 -3 -13 -2 -16 3 -3 5 -16 7 -28 3
-16 -4 -19 -2 -13 9 4 8 -13 -6 -38 -31 -25 -25 -43 -49 -40 -53 3 -4 -3 -19
-11 -32 -9 -14 -14 -25 -11 -25 3 0 -1 -13 -10 -30 -9 -16 -20 -30 -26 -30 -6
0 -5 9 3 23 7 12 12 27 13 32 0 6 7 21 14 35 8 14 15 34 15 45 1 28 -33 65
-60 65 -26 0 -94 -62 -94 -85 0 -20 -36 -86 -43 -79 -3 3 -3 -3 0 -15 6 -24
-22 -40 -40 -22 -8 8 -5 19 12 42 13 18 19 29 12 25 -15 -10 -14 6 3 29 8 11
11 25 9 32 -3 8 3 24 13 36 l19 22 -22 -19 c-20 -17 -23 -17 -23 -3 0 10 -7
17 -16 17 -8 0 -13 4 -10 8 8 13 -37 8 -64 -7 -20 -11 -17 -5 13 27 25 26 40
50 41 70 1 17 -2 28 -7 25 -5 -3 -13 0 -17 6 -8 14 -38 17 -64 6 -14 -6 -17
-5 -12 3 13 21 0 13 -25 -16z m736 -116 l-16 -37 31 -12 c40 -15 33 -31 -16
-37 -35 -5 -41 -10 -66 -60 -36 -74 -36 -100 0 -100 32 0 60 -16 49 -27 -11
-10 -119 -5 -131 7 -6 6 3 38 24 84 33 76 34 106 4 106 -29 0 -8 25 24 28 26
3 36 11 53 45 12 23 27 45 33 49 21 14 26 -9 11 -46z m-415 -43 c0 -4 -12 -41
-27 -83 -32 -92 -28 -110 25 -110 48 0 59 12 105 111 19 42 39 79 45 83 23 14
22 -17 -4 -76 -14 -35 -28 -75 -31 -90 -5 -27 -4 -28 36 -28 28 0 41 -4 41
-14 0 -29 -81 -36 -117 -11 -20 14 -25 14 -56 -1 -48 -23 -105 -12 -113 21 -7
28 -1 47 39 138 16 37 36 67 43 67 8 0 14 -3 14 -7z m-284 -17 c16 -12 22 -12
46 2 15 9 30 13 34 9 4 -3 -7 -44 -24 -91 -34 -93 -31 -106 26 -106 22 0 32
-4 30 -12 -6 -17 -76 -22 -104 -8 -18 10 -27 9 -45 -4 -26 -18 -71 -21 -99 -6
-10 5 -24 25 -30 44 -33 102 88 229 166 172z m1159 -38 c29 -13 43 -53 28 -77
-15 -24 -26 -19 -27 12 -2 31 -19 47 -51 47 -52 0 -104 -76 -85 -124 12 -32
37 -45 107 -54 34 -4 58 -12 61 -21 4 -12 -9 -13 -79 -8 -68 6 -87 11 -106 29
-27 28 -34 63 -19 103 31 86 102 124 171 93z m312 -60 c20 -19 27 -20 43 -10
54 33 52 7 -6 -85 -50 -80 -49 -99 3 -105 15 -2 28 -9 31 -15 7 -23 -78 -16
-103 7 -18 17 -27 19 -48 11 -27 -11 -78 -1 -103 20 -21 17 -17 89 6 127 42
68 131 93 177 50z"/>
<path d="M1811 5215 c-33 -29 -56 -85 -47 -119 11 -44 82 -54 112 -15 17 21
41 102 36 122 -3 16 -38 37 -62 37 -5 0 -22 -11 -39 -25z"/>
<path d="M3274 5131 c-43 -26 -64 -59 -64 -98 0 -73 84 -78 132 -7 36 52 39
70 20 93 -26 29 -54 33 -88 12z"/>
<path d="M2103 4729 c-82 -42 -104 -55 -98 -61 3 -3 -5 -16 -17 -30 -13 -13
-24 -31 -25 -39 -1 -8 -7 -34 -12 -59 -10 -47 -5 -113 10 -142 6 -10 7 -18 4
-18 -3 0 5 -16 18 -35 26 -38 88 -91 118 -100 16 -5 19 -16 19 -66 l0 -59
-124 0 c-87 0 -132 4 -151 14 -15 8 -41 12 -59 9 -17 -3 -39 -6 -48 -6 -9 -1
-15 -4 -13 -7 2 -4 -6 -17 -19 -31 -45 -49 -20 -152 44 -179 27 -11 100 -10
100 3 0 4 61 7 135 7 l135 0 0 -89 0 -88 -45 -1 c-25 -1 -50 -4 -55 -7 -6 -4
-10 0 -10 7 0 8 -3 9 -8 3 -4 -5 -27 -12 -52 -13 -25 -2 -48 -9 -52 -15 -6 -9
-8 -9 -8 0 0 17 -157 -40 -230 -83 -57 -33 -150 -120 -150 -140 0 -6 -7 -17
-15 -24 -8 -6 -14 -15 -13 -18 2 -11 -24 -62 -32 -62 -3 0 -7 -46 -8 -102 -1
-88 2 -110 22 -150 13 -27 22 -48 20 -48 -2 0 8 -12 21 -26 14 -15 22 -32 18
-38 -3 -6 -3 -8 2 -4 4 4 30 -13 57 -37 28 -25 54 -45 60 -45 5 0 6 -4 3 -10
-9 -15 2 -12 19 6 9 8 16 25 16 37 0 33 55 143 101 201 22 28 36 52 30 54 -6
2 -9 8 -6 13 4 5 -1 6 -9 3 -9 -4 -18 1 -22 10 -3 9 -12 16 -19 16 -7 0 -27
21 -44 46 -27 41 -30 52 -27 110 3 51 10 75 33 112 17 26 35 46 42 44 7 -1 10
2 7 7 -13 20 133 100 177 97 12 -1 25 2 28 7 8 11 140 11 148 0 3 -4 34 -8 68
-9 63 0 173 -22 173 -34 0 -4 10 -6 22 -5 19 1 172 -71 204 -96 6 -5 15 -5 19
-1 5 4 5 -1 2 -10 -3 -10 -3 -17 1 -16 25 6 152 -120 152 -151 0 -6 5 -11 10
-11 6 0 10 -4 10 -9 0 -5 14 -32 31 -59 16 -27 31 -59 32 -71 1 -13 6 -20 15
-16 7 2 10 0 7 -5 -3 -6 -1 -26 6 -45 10 -26 19 -35 36 -35 l24 0 -1 284 c-1
279 -1 284 -21 279 -12 -3 -27 -22 -36 -44 -8 -21 -19 -36 -24 -33 -5 3 -9 2
-8 -3 7 -40 -44 -68 -107 -58 -24 3 -44 10 -44 16 0 5 -9 9 -20 9 -11 0 -20 5
-20 11 0 5 -4 8 -9 4 -5 -3 -15 0 -23 7 -7 7 -20 14 -28 16 -8 2 -18 8 -21 14
-3 5 -9 9 -13 9 -25 -4 -36 0 -30 11 4 6 3 8 -4 5 -14 -10 -43 3 -36 15 4 6
-3 5 -15 -1 -11 -7 -21 -8 -21 -3 0 5 -36 20 -80 33 l-80 23 0 103 0 103 135
0 c74 0 135 -3 135 -7 0 -15 80 -13 110 2 63 33 79 129 28 173 -39 33 -79 45
-112 32 -15 -5 -88 -10 -162 -10 l-135 0 3 58 c2 47 6 57 20 56 10 -1 15 2 12
7 -5 8 19 14 41 9 6 -1 7 1 3 5 -6 7 62 81 72 78 3 -1 6 6 7 15 1 23 28 93 34
88 7 -7 2 76 -6 109 -14 57 -57 123 -100 154 -56 40 -88 52 -157 56 -47 3 -66
-2 -115 -26z m137 -170 c0 -5 4 -8 9 -5 14 9 33 -22 38 -59 5 -51 -32 -87 -84
-81 -104 11 -91 154 15 156 12 0 22 -5 22 -11z"/>
<path d="M2115 3367 c-86 -22 -195 -87 -266 -158 -145 -145 -189 -333 -120
-517 105 -279 464 -429 745 -312 129 54 242 180 270 303 12 51 -9 27 -47 -55
-69 -146 -186 -234 -344 -258 -52 -8 -88 -8 -134 0 -185 34 -254 142 -266 416
-17 398 89 592 314 571 44 -4 88 -18 138 -42 125 -60 250 -216 298 -371 31
-102 40 -81 33 79 -9 205 -18 331 -23 340 -3 4 -29 -17 -58 -48 -66 -68 -88
-70 -171 -17 -32 21 -79 47 -104 56 -58 23 -198 30 -265 13z"/>
<path d="M1433 1358 c-2 -5 -14 -8 -26 -8 -12 0 -39 -11 -59 -25 -20 -14 -40
-25 -44 -25 -4 0 -18 -10 -30 -21 -19 -18 -21 -26 -13 -42 8 -14 8 -18 0 -13
-6 4 -11 2 -11 -4 0 -6 -10 -8 -25 -4 -64 16 -84 11 -122 -29 -21 -22 -32 -36
-24 -32 11 6 13 3 9 -13 -4 -12 -2 -22 4 -22 6 0 8 -7 4 -15 -3 -8 -2 -14 2
-14 20 3 23 -3 11 -18 -11 -15 -11 -16 1 -5 8 6 20 12 27 12 7 0 -23 -36 -67
-80 -54 -54 -78 -85 -74 -95 4 -9 -2 -25 -12 -37 -11 -12 -13 -18 -6 -14 7 4
12 2 12 -6 0 -8 -6 -20 -12 -27 -10 -11 -10 -13 0 -7 7 4 12 2 12 -6 0 -8 -6
-20 -12 -27 -7 -7 -8 -12 -3 -11 24 5 27 -2 9 -22 -11 -13 -12 -17 -3 -11 12
10 18 7 33 -18 10 -16 15 -36 12 -44 -3 -9 0 -12 10 -8 15 6 19 -7 7 -23 -5
-5 -4 -6 2 -1 12 9 27 9 45 -3 12 -7 11 -12 -5 -32 l-20 -23 21 18 c33 28 51
21 23 -10 l-24 -26 30 21 c20 14 38 20 53 16 l23 -7 -23 -26 c-20 -22 -18 -22
9 3 40 36 56 27 22 -12 -15 -17 -11 -15 13 7 21 19 41 31 45 27 4 -4 3 -10 -2
-14 -6 -4 -17 -16 -25 -27 -8 -11 1 -6 20 12 19 17 47 34 62 37 14 2 36 10 48
16 18 10 21 10 15 -2 -4 -7 22 16 59 52 63 62 78 78 56 65 -20 -12 -9 11 22
50 18 22 23 32 12 23 -19 -17 -20 -16 -19 40 1 31 -4 69 -11 83 -10 20 -10 29
-1 38 9 10 8 11 -4 6 -12 -4 -19 2 -27 22 -9 27 -8 29 16 31 25 2 25 2 6 -20
l-19 -23 26 23 c34 30 59 30 33 0 -10 -13 -2 -8 19 10 35 30 49 37 70 33 5 -1
6 3 2 9 -3 5 0 10 8 10 8 0 22 10 33 22 10 12 13 18 7 14 -20 -12 -15 4 14 43
15 20 19 30 10 22 -15 -12 -17 -11 -17 2 0 9 5 19 10 22 8 5 7 11 -1 21 -6 8
-8 14 -4 14 4 0 2 7 -5 15 -7 8 -9 15 -5 15 4 0 -12 20 -36 44 -24 24 -49 41
-56 39 -7 -3 -13 -1 -13 5 0 6 -10 8 -22 4 -11 -3 -19 -1 -16 4 4 5 -14 9 -39
9 -25 0 -47 -3 -50 -7z m127 -66 c22 -10 42 -32 54 -55 16 -34 17 -44 7 -78
-19 -63 -57 -81 -158 -76 -56 3 -83 1 -86 -7 -2 -6 16 -49 40 -96 47 -92 53
-130 28 -201 -19 -53 -37 -74 -94 -107 -62 -36 -157 -37 -221 -2 -83 47 -114
152 -71 246 24 52 99 107 149 108 47 1 52 -20 10 -41 -18 -10 -52 -37 -75 -59
-38 -37 -43 -46 -43 -87 0 -60 13 -87 56 -117 77 -52 182 -20 225 68 30 61 21
104 -46 222 l-57 99 -58 7 c-69 8 -85 16 -76 39 6 15 15 17 70 11 61 -6 65 -5
71 16 31 101 177 159 275 110z m-245 -342 c3 -11 4 -24 0 -30 -4 -6 1 -7 11
-3 14 5 16 3 11 -11 -4 -10 -3 -15 3 -11 15 9 4 -94 -12 -113 -13 -15 -69 -42
-88 -42 -6 0 -8 6 -4 13 6 9 5 9 -7 0 -13 -10 -19 -9 -36 7 -12 10 -24 16 -27
13 -3 -4 -6 1 -6 10 0 9 -4 17 -9 17 -16 0 -1 64 22 88 24 26 72 54 79 47 3
-3 13 4 23 15 23 25 32 25 40 0z"/>
<path d="M1400 1241 c-19 -10 -42 -30 -50 -44 -23 -40 -1 -56 92 -63 63 -6 82
-4 103 10 25 16 34 57 17 82 -24 37 -107 45 -162 15z"/>
<path d="M2544 1215 c-40 -24 -94 -83 -94 -103 0 -18 33 -23 104 -16 59 6 75
12 98 35 34 34 35 53 3 84 -31 31 -59 31 -111 0z"/>
<path d="M2716 670 c-63 -19 -84 -73 -50 -125 19 -30 62 -33 100 -8 29 19 78
109 70 129 -6 16 -73 18 -120 4z"/>
</g>
</svg>
